<svg width="24" height="24" viewBox="0 0 24 24" fill="none" xmlns="http://www.w3.org/2000/svg">
<path fill-rule="evenodd" clip-rule="evenodd" d="M20.356 12.4785L17.7651 15.0164C17.0492 15.7303 15.9752 14.6595 16.691 13.9455L17.5655 13.0766C17.7647 12.8788 17.6992 12.7185 17.4193 12.7185H8.87755C8.45361 12.7185 8.11599 12.3795 8.11599 11.9612C8.11599 11.544 8.45695 11.2041 8.87755 11.2041H17.4193C17.6981 11.2041 17.7647 11.0436 17.5655 10.8458L16.691 9.97671C15.9752 9.26302 17.0492 8.19196 17.7651 8.90583L20.3525 11.4177C20.655 11.7113 20.6555 12.1852 20.356 12.4785L20.356 12.4785ZM15.8834 7.03894C16.2293 7.38484 16.2293 7.94578 15.8834 8.29189C15.5373 8.63779 14.9763 8.63779 14.6304 8.29189C12.6039 6.2654 9.31829 6.2654 7.29189 8.29189C5.26549 10.3184 5.2654 13.604 7.29189 15.6304C9.31838 17.6569 12.604 17.6569 14.6304 15.6304C14.9763 15.2843 15.5372 15.2843 15.8834 15.6304C16.2293 15.9763 16.2293 16.5372 15.8834 16.8834C13.1649 19.6018 8.75729 19.6018 6.03885 16.8834C3.32041 14.1649 3.32036 9.75729 6.03885 7.03885C8.75733 4.32041 13.1649 4.32036 15.8834 7.03885V7.03894Z" fill="#272525"/>
</svg>
