<svg width="24" height="24" viewBox="0 0 24 24" fill="none" xmlns="http://www.w3.org/2000/svg">
<path d="M15.8497 8.84991C15.8497 6.73244 14.1172 5 11.9998 5C9.8824 5 8.1499 6.7325 8.1499 8.84991C8.1499 10.9673 9.8824 12.6998 11.9998 12.6998C14.1172 12.6998 15.8497 10.9673 15.8497 8.84991Z" fill="#272525"/>
<path d="M13.5224 13.5044C13.0325 13.6619 12.5249 13.7495 11.9999 13.7495C11.4749 13.7495 10.9674 13.6619 10.4774 13.5044C8.93745 12.9969 7.2224 13.4169 6.2075 14.6594C5.45492 15.587 5 16.777 5 18.0545C5 18.7721 5.5775 19.3496 6.29504 19.3496H17.705C18.4225 19.3496 19 18.7721 19 18.0545C19 16.7771 18.545 15.587 17.7925 14.6594C16.76 13.417 15.0624 12.997 13.5223 13.5044H13.5224Z" fill="#272525"/>
</svg>
