<svg width="24" height="24" viewBox="0 0 24 24" fill="none" xmlns="http://www.w3.org/2000/svg">
<path fill-rule="evenodd" clip-rule="evenodd" d="M12.6242 4H10.9557C10.7047 4.00517 10.4623 4.09265 10.2657 4.24897C10.0693 4.4054 9.92973 4.62204 9.86844 4.8656L9.74211 5.34388C9.6845 5.56197 9.5284 5.74053 9.31996 5.82677C9.11165 5.91313 8.87494 5.89707 8.68008 5.78354L8.25268 5.5348C8.03179 5.40285 7.77284 5.34906 7.51758 5.38218C7.26244 5.4152 7.02572 5.53334 6.84582 5.71727L5.71744 6.84577H5.71755C5.53361 7.02578 5.41569 7.26239 5.38258 7.51753C5.34946 7.77267 5.40324 8.03152 5.53508 8.2524L5.78314 8.67969C5.89668 8.87452 5.91274 9.11126 5.82649 9.31968C5.74013 9.528 5.56147 9.68421 5.34337 9.74171L4.86566 9.86838C4.61613 9.93138 4.39514 10.0764 4.23814 10.2802C4.08114 10.484 3.99726 10.7347 4.00007 10.992V12.5882C3.99726 12.8454 4.08115 13.0961 4.23814 13.3C4.39513 13.5038 4.61612 13.6488 4.86566 13.7118L5.34418 13.838C5.56226 13.8954 5.74094 14.0515 5.8273 14.2598C5.91354 14.4683 5.89748 14.705 5.78384 14.8998L5.53521 15.3272C5.40337 15.5482 5.34958 15.8071 5.38271 16.0623C5.41583 16.3175 5.53375 16.5541 5.71768 16.7341L6.84606 17.8626C7.02596 18.0465 7.26257 18.1646 7.51783 18.1977C7.77297 18.2308 8.03193 18.1771 8.25281 18.0452L8.68021 17.7961C8.87516 17.6827 9.1119 17.6667 9.32021 17.7531C9.52864 17.8394 9.68474 18.0181 9.74235 18.2362L9.86846 18.7143C9.93146 18.9638 10.0764 19.1848 10.2803 19.3418C10.4841 19.4988 10.7348 19.5827 10.9921 19.5799H12.5879C12.8452 19.5827 13.0959 19.4989 13.2998 19.3419C13.5036 19.1848 13.6487 18.9638 13.7116 18.7143L13.8379 18.236C13.8955 18.0179 14.0516 17.8392 14.2599 17.753C14.4682 17.6666 14.7049 17.6825 14.8999 17.796L15.3275 18.045V18.0448C15.5484 18.1769 15.8074 18.2307 16.0625 18.1976C16.3178 18.1644 16.5544 18.0464 16.7343 17.8624L17.8624 16.7339C18.0464 16.554 18.1645 16.3174 18.1976 16.0622C18.2308 15.8071 18.177 15.5481 18.0451 15.3272L17.7969 14.8997C17.6833 14.7048 17.6673 14.468 17.7535 14.2597C17.8399 14.0513 18.0185 13.8952 18.2366 13.8376L18.7143 13.7115C18.9639 13.6485 19.1849 13.5034 19.3419 13.2996C19.4989 13.0957 19.5827 12.8451 19.5799 12.5878V10.9917C19.5827 10.7344 19.499 10.4836 19.342 10.2798C19.1849 10.076 18.9639 9.9309 18.7143 9.86803L18.2357 9.7417C18.0176 9.6842 17.839 9.5281 17.7527 9.31978C17.6664 9.11136 17.6824 8.87464 17.7961 8.67979L18.0448 8.25215V8.25226C18.1767 8.03126 18.2303 7.77243 18.1972 7.51728C18.1641 7.26214 18.0461 7.02554 17.8621 6.84563L16.734 5.71714V5.71703C16.5541 5.53309 16.3173 5.41506 16.0621 5.38205C15.8069 5.34893 15.548 5.40272 15.327 5.53467L14.8999 5.78307C14.7051 5.89649 14.4685 5.91244 14.2602 5.82619C14.0517 5.74006 13.8956 5.56151 13.8379 5.34354L13.7116 4.86559C13.6504 4.62202 13.5108 4.40527 13.3143 4.24885C13.1179 4.09253 12.8753 4.00505 12.6243 4L12.6242 4ZM11.79 14.5225C11.0652 14.5225 10.37 14.2346 9.85752 13.722C9.34499 13.2094 9.05705 12.5143 9.05705 11.7895C9.05716 11.0646 9.34511 10.3696 9.85763 9.85704C10.3702 9.34451 11.0654 9.05668 11.7902 9.05668C12.515 9.05679 13.2101 9.34474 13.7226 9.85738C14.235 10.3699 14.523 11.0652 14.5229 11.7899C14.5222 12.5145 14.234 13.2092 13.7216 13.7215C13.2092 14.2338 12.5145 14.5218 11.79 14.5225H11.79ZM11.79 8.61729V8.61718C12.6314 8.61718 13.4384 8.95138 14.0333 9.54633C14.6283 10.1413 14.9626 10.9482 14.9627 11.7896C14.9627 12.6311 14.6285 13.438 14.0336 14.033C13.4386 14.6279 12.6317 14.9622 11.7903 14.9624C10.9488 14.9624 10.1419 14.6282 9.54692 14.0332C8.95197 13.4383 8.61765 12.6314 8.61754 11.7899C8.61855 10.9488 8.95298 10.1424 9.5477 9.54756C10.1424 8.95282 10.9488 8.61818 11.79 8.61718V8.61729Z" fill="#272525"/>
</svg>
